<svg width="25" height="25" viewBox="0 0 25 25" fill="none" xmlns="http://www.w3.org/2000/svg">
<path d="M12.5 25C5.59619 25 0 19.4038 0 12.5C0 5.59619 5.59619 0 12.5 0C19.4038 0 25 5.59619 25 12.5C25 14.4106 24.5708 16.2212 23.8042 17.8408C22.9048 18.793 22.1533 19.8857 21.5864 21.0835C19.3076 23.4951 16.0796 25 12.5 25Z" fill="#463B83"/>
<path d="M23.8286 17.7881C23.2559 19.0132 22.4912 20.1299 21.5723 21.0991C20.3359 21.2505 19.1484 20.52 18.7373 19.3272C17.8643 16.7959 15.4815 15.0967 12.8037 15.0972C12.7026 15.0972 12.6016 15.0972 12.5005 15.0972C12.3994 15.0972 12.2983 15.0972 12.1973 15.0972C9.51954 15.0972 7.13672 16.7959 6.26368 19.3272C5.83301 20.5767 4.54981 21.3198 3.25147 21.0718C1.80909 20.7964 0.863285 19.4038 1.13868 17.9614L2.78809 9.32471L2.79102 9.3252C3.08301 6.7373 5.27881 4.72656 7.94434 4.72656H17.0547C19.7202 4.72656 21.916 6.73779 22.208 9.32568L22.2129 9.32471L23.8286 17.7881Z" fill="#C1BBDF"/>
<path d="M22.0957 20.5098C21.9273 20.7114 21.7524 20.9082 21.5718 21.0991C20.3359 21.2505 19.148 20.52 18.7368 19.3271C17.9702 17.105 16.0405 15.5249 13.769 15.1719C14.0855 15.123 14.4077 15.0972 14.7354 15.0972H15.0386H15.3418C18.0195 15.0972 20.4023 16.7959 21.2754 19.3271C21.4399 19.8042 21.7295 20.2075 22.0957 20.5098ZM14.436 5.67432L14.9414 4.72656H10.0586L10.479 5.62793C10.6397 5.97168 10.9849 6.19141 11.3643 6.19141H13.5742C13.9351 6.19141 14.2661 5.99268 14.436 5.67432ZM7.12891 6.83594C6.17725 6.83594 5.32374 7.25537 4.74219 7.91894C5.52344 6.04443 7.37305 4.72656 9.53077 4.72656H7.94385C5.27832 4.72656 3.08252 6.73779 2.79053 9.32519L2.7876 9.32471L1.13819 17.9619C0.862797 19.4043 1.8086 20.7964 3.25098 21.0723C3.69483 21.1567 4.13672 21.1255 4.54395 20.998C3.27002 20.6016 2.46875 19.3037 2.7251 17.9619L4.07764 10.8818C4.45606 12.21 5.67823 13.1836 7.12891 13.1836C8.88184 13.1836 10.3027 11.7627 10.3027 10.0098C10.3027 8.25684 8.88184 6.83594 7.12891 6.83594ZM17.8711 13.1836C19.624 13.1836 21.0449 11.7627 21.0449 10.0098C21.0449 8.25684 19.624 6.83594 17.8711 6.83594C16.1182 6.83594 14.6973 8.25684 14.6973 10.0098C14.6973 11.7627 16.1182 13.1836 17.8711 13.1836Z" fill="#ABA4D5"/>
<path d="M12.0117 13.1836C12.0117 13.5884 11.6841 13.916 11.2793 13.916C10.8745 13.916 10.5469 13.5884 10.5469 13.1836C10.5469 12.7788 10.8745 12.4512 11.2793 12.4512C11.6841 12.4512 12.0117 12.7788 12.0117 13.1836ZM13.7207 12.4512C13.3159 12.4512 12.9883 12.7788 12.9883 13.1836C12.9883 13.5884 13.3159 13.916 13.7207 13.916C14.1255 13.916 14.4531 13.5884 14.4531 13.1836C14.4531 12.7788 14.1255 12.4512 13.7207 12.4512Z" fill="#968DCA"/>
<path d="M8.83789 10.0098C8.83789 10.9536 8.07275 11.7188 7.12891 11.7188C6.18506 11.7188 5.41992 10.9536 5.41992 10.0098C5.41992 9.06592 6.18506 8.30078 7.12891 8.30078C8.07275 8.30078 8.83789 9.06592 8.83789 10.0098Z" fill="#FD3980"/>
<path d="M7.48975 11.6802C7.37354 11.7051 7.25244 11.7188 7.12891 11.7188C6.18506 11.7188 5.41992 10.9536 5.41992 10.0098C5.41992 9.06592 6.18506 8.30078 7.12891 8.30078C7.25293 8.30078 7.37354 8.31445 7.48975 8.33936C6.71924 8.50488 6.1416 9.18945 6.1416 10.0098C6.1416 10.8301 6.71924 11.5146 7.48975 11.6802Z" fill="#FD0464"/>
<path d="M20.3125 9.52148V10.498C20.3125 10.7676 20.0938 10.9863 19.8242 10.9863H18.8477V11.9629C18.8477 12.2324 18.6289 12.4512 18.3594 12.4512H17.3828C17.1133 12.4512 16.8945 12.2324 16.8945 11.9629V10.9863H15.918C15.6484 10.9863 15.4297 10.7676 15.4297 10.498V9.52148C15.4297 9.25195 15.6484 9.0332 15.918 9.0332H16.8945V8.05664C16.8945 7.78711 17.1133 7.56836 17.3828 7.56836H18.3594C18.6289 7.56836 18.8477 7.78711 18.8477 8.05664V9.0332H19.8242C20.0938 9.0332 20.3125 9.25195 20.3125 9.52148Z" fill="#FDF061"/>
<path d="M18.395 8.62256C18.4565 8.68408 18.4131 8.78906 18.3262 8.78906H17.4165C17.3296 8.78906 17.2856 8.68408 17.3477 8.62256L17.8022 8.16797C17.8403 8.12988 17.9023 8.12988 17.9404 8.16797L18.395 8.62256ZM18.3257 11.2305H17.416C17.3291 11.2305 17.2852 11.3354 17.3472 11.397L17.8018 11.8516C17.8398 11.8896 17.9019 11.8896 17.9399 11.8516L18.395 11.397C18.4565 11.3354 18.4126 11.2305 18.3257 11.2305ZM16.4839 9.48584L16.0293 9.94043C15.9912 9.97852 15.9912 10.0405 16.0293 10.0786L16.4839 10.5332C16.5454 10.5947 16.6504 10.5513 16.6504 10.4644V9.55469C16.6504 9.46777 16.5454 9.42432 16.4839 9.48584ZM19.7134 9.94092L19.2588 9.48633C19.1973 9.4248 19.0923 9.46826 19.0923 9.55518V10.4648C19.0923 10.5522 19.1973 10.5957 19.2588 10.5342L19.7134 10.0791C19.7515 10.0405 19.7515 9.979 19.7134 9.94092Z" fill="#D6BF01"/>
</svg>
